<mxfile host="app.diagrams.net" modified="2024-01-29T04:55:39.408Z" agent="Mozilla/5.0 (Windows NT 10.0; Win64; x64) AppleWebKit/537.36 (KHTML, like Gecko) Chrome/120.0.0.0 Safari/537.36" etag="qA9F9XbutHP9SoLGixq8" version="23.0.2" type="device">
  <diagram name="Halaman-1" id="k4D3OGIkISyZfAIL6RLr">
    <mxGraphModel dx="1680" dy="894" grid="0" gridSize="10" guides="1" tooltips="1" connect="1" arrows="1" fold="1" page="0" pageScale="1" pageWidth="1169" pageHeight="827" math="0" shadow="0">
      <root>
        <mxCell id="0" />
        <mxCell id="1" parent="0" />
        <mxCell id="2k8ayXH1amJUCtj5-Pd3-32" value="Flow Aplikasi E-Form Bank Sumut" style="shape=table;startSize=30;container=1;collapsible=0;childLayout=tableLayout;fontSize=16;fontStyle=1" parent="1" vertex="1">
          <mxGeometry x="-579" y="-300" width="730" height="756.75" as="geometry" />
        </mxCell>
        <mxCell id="2k8ayXH1amJUCtj5-Pd3-33" value="" style="shape=tableRow;horizontal=0;startSize=0;swimlaneHead=0;swimlaneBody=0;strokeColor=inherit;top=0;left=0;bottom=0;right=0;collapsible=0;dropTarget=0;fillColor=none;points=[[0,0.5],[1,0.5]];portConstraint=eastwest;fontSize=16;" parent="2k8ayXH1amJUCtj5-Pd3-32" vertex="1">
          <mxGeometry y="30" width="730" height="42" as="geometry" />
        </mxCell>
        <mxCell id="2k8ayXH1amJUCtj5-Pd3-34" value="NASABAH" style="shape=partialRectangle;html=1;whiteSpace=wrap;connectable=0;strokeColor=inherit;overflow=hidden;fillColor=none;top=0;left=0;bottom=0;right=0;pointerEvents=1;fontSize=16;" parent="2k8ayXH1amJUCtj5-Pd3-33" vertex="1">
          <mxGeometry width="244" height="42" as="geometry">
            <mxRectangle width="244" height="42" as="alternateBounds" />
          </mxGeometry>
        </mxCell>
        <mxCell id="2k8ayXH1amJUCtj5-Pd3-35" value="CUSTOMER SERVICE" style="shape=partialRectangle;html=1;whiteSpace=wrap;connectable=0;strokeColor=inherit;overflow=hidden;fillColor=none;top=0;left=0;bottom=0;right=0;pointerEvents=1;fontSize=16;" parent="2k8ayXH1amJUCtj5-Pd3-33" vertex="1">
          <mxGeometry x="244" width="242" height="42" as="geometry">
            <mxRectangle width="242" height="42" as="alternateBounds" />
          </mxGeometry>
        </mxCell>
        <mxCell id="2k8ayXH1amJUCtj5-Pd3-36" value="SUPERVISI" style="shape=partialRectangle;html=1;whiteSpace=wrap;connectable=0;strokeColor=inherit;overflow=hidden;fillColor=none;top=0;left=0;bottom=0;right=0;pointerEvents=1;fontSize=16;" parent="2k8ayXH1amJUCtj5-Pd3-33" vertex="1">
          <mxGeometry x="486" width="244" height="42" as="geometry">
            <mxRectangle width="244" height="42" as="alternateBounds" />
          </mxGeometry>
        </mxCell>
        <mxCell id="2k8ayXH1amJUCtj5-Pd3-37" value="" style="shape=tableRow;horizontal=0;startSize=0;swimlaneHead=0;swimlaneBody=0;strokeColor=inherit;top=0;left=0;bottom=0;right=0;collapsible=0;dropTarget=0;fillColor=none;points=[[0,0.5],[1,0.5]];portConstraint=eastwest;fontSize=16;" parent="2k8ayXH1amJUCtj5-Pd3-32" vertex="1">
          <mxGeometry y="72" width="730" height="685" as="geometry" />
        </mxCell>
        <mxCell id="2k8ayXH1amJUCtj5-Pd3-38" value="" style="shape=partialRectangle;html=1;whiteSpace=wrap;connectable=0;strokeColor=inherit;overflow=hidden;fillColor=none;top=0;left=0;bottom=0;right=0;pointerEvents=1;fontSize=16;resizeWidth=0;" parent="2k8ayXH1amJUCtj5-Pd3-37" vertex="1">
          <mxGeometry width="244" height="685" as="geometry">
            <mxRectangle width="244" height="685" as="alternateBounds" />
          </mxGeometry>
        </mxCell>
        <mxCell id="2k8ayXH1amJUCtj5-Pd3-39" value="" style="shape=partialRectangle;html=1;whiteSpace=wrap;connectable=0;strokeColor=inherit;overflow=hidden;fillColor=none;top=0;left=0;bottom=0;right=0;pointerEvents=1;fontSize=16;" parent="2k8ayXH1amJUCtj5-Pd3-37" vertex="1">
          <mxGeometry x="244" width="242" height="685" as="geometry">
            <mxRectangle width="242" height="685" as="alternateBounds" />
          </mxGeometry>
        </mxCell>
        <mxCell id="2k8ayXH1amJUCtj5-Pd3-40" value="" style="shape=partialRectangle;html=1;whiteSpace=wrap;connectable=0;strokeColor=inherit;overflow=hidden;fillColor=none;top=0;left=0;bottom=0;right=0;pointerEvents=1;fontSize=16;" parent="2k8ayXH1amJUCtj5-Pd3-37" vertex="1">
          <mxGeometry x="486" width="244" height="685" as="geometry">
            <mxRectangle width="244" height="685" as="alternateBounds" />
          </mxGeometry>
        </mxCell>
        <mxCell id="2k8ayXH1amJUCtj5-Pd3-42" value="" style="shape=parallelogram;perimeter=parallelogramPerimeter;whiteSpace=wrap;html=1;fixedSize=1;fontSize=16;dashed=0;" parent="2k8ayXH1amJUCtj5-Pd3-37" vertex="1">
          <mxGeometry x="730" height="685" as="geometry">
            <mxRectangle width="NaN" height="685" as="alternateBounds" />
          </mxGeometry>
        </mxCell>
        <mxCell id="2k8ayXH1amJUCtj5-Pd3-44" value="" style="shape=parallelogram;perimeter=parallelogramPerimeter;whiteSpace=wrap;html=1;fixedSize=1;fontSize=16;dashed=0;" parent="2k8ayXH1amJUCtj5-Pd3-37" vertex="1">
          <mxGeometry height="685" as="geometry">
            <mxRectangle width="NaN" height="685" as="alternateBounds" />
          </mxGeometry>
        </mxCell>
        <mxCell id="2k8ayXH1amJUCtj5-Pd3-41" value="MULAI" style="html=1;dashed=0;whiteSpace=wrap;shape=mxgraph.dfd.start;fontSize=16;" parent="1" vertex="1">
          <mxGeometry x="-502" y="-210" width="100" height="40" as="geometry" />
        </mxCell>
        <mxCell id="2k8ayXH1amJUCtj5-Pd3-49" value="" style="edgeStyle=none;curved=1;rounded=0;orthogonalLoop=1;jettySize=auto;html=1;fontSize=12;startSize=8;endSize=8;exitX=0.5;exitY=1;exitDx=0;exitDy=0;" parent="1" source="2k8ayXH1amJUCtj5-Pd3-46" target="2k8ayXH1amJUCtj5-Pd3-47" edge="1">
          <mxGeometry relative="1" as="geometry" />
        </mxCell>
        <mxCell id="2k8ayXH1amJUCtj5-Pd3-46" value="Registrasi Permohonan" style="shape=parallelogram;perimeter=parallelogramPerimeter;whiteSpace=wrap;html=1;fixedSize=1;fontSize=16;" parent="1" vertex="1">
          <mxGeometry x="-552" y="-137" width="200" height="60" as="geometry" />
        </mxCell>
        <mxCell id="2k8ayXH1amJUCtj5-Pd3-52" value="" style="edgeStyle=none;curved=1;rounded=0;orthogonalLoop=1;jettySize=auto;html=1;fontSize=12;startSize=8;endSize=8;entryX=0;entryY=0.5;entryDx=0;entryDy=0;exitX=1;exitY=0.5;exitDx=0;exitDy=0;" parent="1" source="2k8ayXH1amJUCtj5-Pd3-47" target="2k8ayXH1amJUCtj5-Pd3-51" edge="1">
          <mxGeometry relative="1" as="geometry" />
        </mxCell>
        <mxCell id="2k8ayXH1amJUCtj5-Pd3-47" value="Mendapatkan nomor registrasi" style="rounded=0;whiteSpace=wrap;html=1;fontSize=16;" parent="1" vertex="1">
          <mxGeometry x="-552" y="-28" width="200" height="60" as="geometry" />
        </mxCell>
        <mxCell id="2k8ayXH1amJUCtj5-Pd3-48" value="" style="endArrow=classic;html=1;rounded=0;fontSize=12;startSize=8;endSize=8;curved=1;entryX=0.5;entryY=0;entryDx=0;entryDy=0;exitX=0.5;exitY=0.5;exitDx=0;exitDy=20;exitPerimeter=0;" parent="1" source="2k8ayXH1amJUCtj5-Pd3-41" target="2k8ayXH1amJUCtj5-Pd3-46" edge="1">
          <mxGeometry width="50" height="50" relative="1" as="geometry">
            <mxPoint x="-450" y="-174" as="sourcePoint" />
            <mxPoint x="-241" y="-161" as="targetPoint" />
          </mxGeometry>
        </mxCell>
        <mxCell id="2k8ayXH1amJUCtj5-Pd3-54" value="" style="edgeStyle=none;curved=1;rounded=0;orthogonalLoop=1;jettySize=auto;html=1;fontSize=12;startSize=8;endSize=8;entryX=0.5;entryY=0;entryDx=0;entryDy=0;" parent="1" source="2k8ayXH1amJUCtj5-Pd3-51" target="2k8ayXH1amJUCtj5-Pd3-53" edge="1">
          <mxGeometry relative="1" as="geometry" />
        </mxCell>
        <mxCell id="2k8ayXH1amJUCtj5-Pd3-51" value="Verifikasi&lt;br&gt;permohonan" style="shape=parallelogram;perimeter=parallelogramPerimeter;whiteSpace=wrap;html=1;fixedSize=1;fontSize=16;" parent="1" vertex="1">
          <mxGeometry x="-310" y="-28" width="200" height="60" as="geometry" />
        </mxCell>
        <mxCell id="2k8ayXH1amJUCtj5-Pd3-56" value="" style="edgeStyle=none;curved=1;rounded=0;orthogonalLoop=1;jettySize=auto;html=1;fontSize=12;startSize=8;endSize=8;entryX=0;entryY=0.5;entryDx=0;entryDy=0;exitX=1;exitY=0.5;exitDx=0;exitDy=0;" parent="1" source="2k8ayXH1amJUCtj5-Pd3-53" target="2k8ayXH1amJUCtj5-Pd3-55" edge="1">
          <mxGeometry relative="1" as="geometry">
            <mxPoint x="-110" y="161" as="sourcePoint" />
            <mxPoint x="-68" y="98" as="targetPoint" />
          </mxGeometry>
        </mxCell>
        <mxCell id="2k8ayXH1amJUCtj5-Pd3-53" value="Lanjutkan" style="rhombus;whiteSpace=wrap;html=1;fontSize=16;flipV=0;flipH=1;direction=east;" parent="1" vertex="1">
          <mxGeometry x="-310" y="82" width="200" height="100" as="geometry" />
        </mxCell>
        <mxCell id="2k8ayXH1amJUCtj5-Pd3-58" value="" style="edgeStyle=none;curved=1;rounded=0;orthogonalLoop=1;jettySize=auto;html=1;fontSize=12;startSize=8;endSize=8;exitX=0.5;exitY=1;exitDx=0;exitDy=0;entryX=0.5;entryY=0;entryDx=0;entryDy=0;" parent="1" source="2k8ayXH1amJUCtj5-Pd3-55" target="2k8ayXH1amJUCtj5-Pd3-57" edge="1">
          <mxGeometry relative="1" as="geometry" />
        </mxCell>
        <mxCell id="2k8ayXH1amJUCtj5-Pd3-55" value="Review Permohonan" style="shape=parallelogram;perimeter=parallelogramPerimeter;whiteSpace=wrap;html=1;fixedSize=1;fontSize=16;" parent="1" vertex="1">
          <mxGeometry x="-70" y="102" width="200" height="60" as="geometry" />
        </mxCell>
        <mxCell id="2k8ayXH1amJUCtj5-Pd3-60" value="" style="edgeStyle=none;curved=1;rounded=0;orthogonalLoop=1;jettySize=auto;html=1;fontSize=12;startSize=8;endSize=8;exitX=0.5;exitY=1;exitDx=0;exitDy=0;entryX=0.5;entryY=0;entryDx=0;entryDy=0;" parent="1" source="2k8ayXH1amJUCtj5-Pd3-57" target="2k8ayXH1amJUCtj5-Pd3-59" edge="1">
          <mxGeometry relative="1" as="geometry">
            <mxPoint x="45" y="312" as="sourcePoint" />
            <mxPoint x="33" y="363" as="targetPoint" />
          </mxGeometry>
        </mxCell>
        <mxCell id="2k8ayXH1amJUCtj5-Pd3-57" value="Approval" style="rhombus;whiteSpace=wrap;html=1;fontSize=16;" parent="1" vertex="1">
          <mxGeometry x="-70" y="212" width="200" height="100" as="geometry" />
        </mxCell>
        <mxCell id="2k8ayXH1amJUCtj5-Pd3-63" value="" style="edgeStyle=none;curved=1;rounded=0;orthogonalLoop=1;jettySize=auto;html=1;fontSize=12;startSize=8;endSize=8;" parent="1" source="2k8ayXH1amJUCtj5-Pd3-59" target="2k8ayXH1amJUCtj5-Pd3-61" edge="1">
          <mxGeometry relative="1" as="geometry" />
        </mxCell>
        <mxCell id="2k8ayXH1amJUCtj5-Pd3-59" value="Passthrough Core Banking" style="rounded=0;whiteSpace=wrap;html=1;fontSize=16;" parent="1" vertex="1">
          <mxGeometry x="-70" y="363" width="200" height="60" as="geometry" />
        </mxCell>
        <mxCell id="2k8ayXH1amJUCtj5-Pd3-61" value="SELESAI" style="html=1;dashed=0;whiteSpace=wrap;shape=mxgraph.dfd.start;fontSize=16;" parent="1" vertex="1">
          <mxGeometry x="-260" y="373" width="100" height="40" as="geometry" />
        </mxCell>
        <mxCell id="2k8ayXH1amJUCtj5-Pd3-64" style="edgeStyle=none;curved=1;rounded=0;orthogonalLoop=1;jettySize=auto;html=1;exitX=0.5;exitY=1;exitDx=0;exitDy=0;entryX=0.5;entryY=0.5;entryDx=0;entryDy=-20;entryPerimeter=0;fontSize=12;startSize=8;endSize=8;" parent="1" target="2k8ayXH1amJUCtj5-Pd3-61" edge="1">
          <mxGeometry relative="1" as="geometry">
            <mxPoint x="-209" y="182" as="sourcePoint" />
            <mxPoint x="-215" y="373" as="targetPoint" />
          </mxGeometry>
        </mxCell>
        <mxCell id="2k8ayXH1amJUCtj5-Pd3-66" value="Ya" style="text;html=1;strokeColor=none;fillColor=none;align=center;verticalAlign=middle;whiteSpace=wrap;rounded=0;fontSize=16;" parent="1" vertex="1">
          <mxGeometry x="-135" y="103" width="60" height="30" as="geometry" />
        </mxCell>
        <mxCell id="2k8ayXH1amJUCtj5-Pd3-68" value="Tidak" style="text;html=1;strokeColor=none;fillColor=none;align=center;verticalAlign=middle;whiteSpace=wrap;rounded=0;fontSize=16;" parent="1" vertex="1">
          <mxGeometry x="-263" y="274" width="60" height="30" as="geometry" />
        </mxCell>
        <mxCell id="2k8ayXH1amJUCtj5-Pd3-69" style="edgeStyle=orthogonalEdgeStyle;rounded=0;orthogonalLoop=1;jettySize=auto;html=1;exitX=0;exitY=0.5;exitDx=0;exitDy=0;entryX=0.5;entryY=0.5;entryDx=0;entryDy=-20;entryPerimeter=0;fontSize=12;startSize=8;endSize=8;" parent="1" source="2k8ayXH1amJUCtj5-Pd3-57" target="2k8ayXH1amJUCtj5-Pd3-61" edge="1">
          <mxGeometry relative="1" as="geometry" />
        </mxCell>
        <mxCell id="2k8ayXH1amJUCtj5-Pd3-70" value="Ya" style="text;html=1;strokeColor=none;fillColor=none;align=center;verticalAlign=middle;whiteSpace=wrap;rounded=0;fontSize=16;" parent="1" vertex="1">
          <mxGeometry x="-15" y="313" width="60" height="30" as="geometry" />
        </mxCell>
      </root>
    </mxGraphModel>
  </diagram>
</mxfile>
